<?xml version="1.0" encoding="utf-8"?><svg viewBox="0 0 24 26" xmlns="http://www.w3.org/2000/svg" xmlns:xlink="http://www.w3.org/1999/xlink"><style>:root>svg{display:none}:root>svg:target{display:block}</style><svg fill="none" viewBox="0 0 14 26" id="arrowleft" xmlns="http://www.w3.org/2000/svg"><path d="M13 25L1 13 13 1" stroke="#08090D" stroke-width="2" stroke-linecap="round" stroke-linejoin="round"/></svg><svg fill="none" viewBox="0 0 14 26" id="arrowright" xmlns="http://www.w3.org/2000/svg"><path d="M1 1l12 12L1 25" stroke="#08090D" stroke-width="2" stroke-linecap="round" stroke-linejoin="round"/></svg><svg fill="none" viewBox="0 0 12 8" id="arrowsolutions" xmlns="http://www.w3.org/2000/svg"><path d="M11 1L6 6 1 1" stroke="#070847" stroke-width="1.5"/></svg><svg fill="none" viewBox="0 0 24 24" id="basket" xmlns="http://www.w3.org/2000/svg"><path d="M9 22a1 1 0 100-2 1 1 0 000 2zM20 22a1 1 0 100-2 1 1 0 000 2zM1 1h4l2.68 13.39a2 2 0 002 1.61h9.72a2 2 0 002-1.61L23 6H6" stroke="#000" stroke-width="2" stroke-linecap="round" stroke-linejoin="round"/></svg><svg fill="none" viewBox="0 0 22 21" id="bottomarrow" xmlns="http://www.w3.org/2000/svg"><path d="M1.692 19.384L20.308 1.616M1.692 1.615h18.616v17.77" stroke="#08090D" stroke-width="2" stroke-linecap="round" stroke-linejoin="round"/></svg><svg fill="none" viewBox="0 0 24 24" id="loop" xmlns="http://www.w3.org/2000/svg"><path d="M11 19a8 8 0 100-16 8 8 0 000 16zM21 21l-4.35-4.35" stroke="#000" stroke-width="2" stroke-linecap="round" stroke-linejoin="round"/></svg></svg>